<svg width="30" height="30" viewBox="0 0 30 30" fill="none" xmlns="http://www.w3.org/2000/svg">
<path d="M28 16.1712C27.7723 18.6351 26.8476 20.9833 25.334 22.9409C23.8205 24.8985 21.7807 26.3845 19.4534 27.2252C17.1261 28.0658 14.6076 28.2263 12.1924 27.6877C9.77726 27.1492 7.56542 25.934 5.81571 24.1843C4.066 22.4346 2.85078 20.2227 2.31226 17.8076C1.77374 15.3924 1.93418 12.8739 2.77482 10.5466C3.61545 8.21926 5.10151 6.17951 7.05911 4.66597C9.0167 3.15242 11.3649 2.2277 13.8288 2C12.3863 3.95164 11.6921 6.35622 11.8726 8.77642C12.053 11.1966 13.0962 13.4716 14.8123 15.1877C16.5284 16.9038 18.8034 17.947 21.2236 18.1274C23.6438 18.3079 26.0484 17.6137 28 16.1712Z" stroke="#F2F2F2" stroke-width="3" stroke-linecap="round" stroke-linejoin="round"/>
</svg>
