<svg width="116" height="18" viewBox="0 0 116 18" fill="none" xmlns="http://www.w3.org/2000/svg">
<path d="M6.44 17.168C5.272 17.168 4.216 16.968 3.272 16.568C2.344 16.168 1.608 15.592 1.064 14.84C0.52 14.088 0.24 13.2 0.224 12.176H3.824C3.872 12.864 4.112 13.408 4.544 13.808C4.992 14.208 5.6 14.408 6.368 14.408C7.152 14.408 7.768 14.224 8.216 13.856C8.664 13.472 8.888 12.976 8.888 12.368C8.888 11.872 8.736 11.464 8.432 11.144C8.128 10.824 7.744 10.576 7.28 10.4C6.832 10.208 6.208 10 5.408 9.776C4.32 9.456 3.432 9.144 2.744 8.84C2.072 8.52 1.488 8.048 0.992 7.424C0.512 6.784 0.272 5.936 0.272 4.88C0.272 3.888 0.52 3.024 1.016 2.288C1.512 1.552 2.208 0.991999 3.104 0.607999C4 0.208 5.024 0.0079999 6.176 0.0079999C7.904 0.0079999 9.304 0.432 10.376 1.28C11.464 2.112 12.064 3.28 12.176 4.784H8.48C8.448 4.208 8.2 3.736 7.736 3.368C7.288 2.984 6.688 2.792 5.936 2.792C5.28 2.792 4.752 2.96 4.352 3.296C3.968 3.632 3.776 4.12 3.776 4.76C3.776 5.208 3.92 5.584 4.208 5.888C4.512 6.176 4.88 6.416 5.312 6.608C5.76 6.784 6.384 6.992 7.184 7.232C8.272 7.552 9.16 7.872 9.848 8.192C10.536 8.512 11.128 8.992 11.624 9.632C12.12 10.272 12.368 11.112 12.368 12.152C12.368 13.048 12.136 13.88 11.672 14.648C11.208 15.416 10.528 16.032 9.632 16.496C8.736 16.944 7.672 17.168 6.44 17.168ZM25.553 13.808H18.881L17.777 17H14.249L20.273 0.223999H24.185L30.209 17H26.657L25.553 13.808ZM24.641 11.12L22.217 4.112L19.793 11.12H24.641ZM46.7887 17H43.4287L35.8207 5.504V17H32.4607V0.223999H35.8207L43.4287 11.744V0.223999H46.7887V17ZM55.9651 0.248C57.7251 0.248 59.2691 0.592 60.5971 1.28C61.9411 1.968 62.9731 2.952 63.6931 4.232C64.4291 5.496 64.7971 6.968 64.7971 8.648C64.7971 10.328 64.4291 11.8 63.6931 13.064C62.9731 14.312 61.9411 15.28 60.5971 15.968C59.2691 16.656 57.7251 17 55.9651 17H50.1091V0.248H55.9651ZM55.8451 14.144C57.6051 14.144 58.9651 13.664 59.9251 12.704C60.8851 11.744 61.3651 10.392 61.3651 8.648C61.3651 6.904 60.8851 5.544 59.9251 4.568C58.9651 3.576 57.6051 3.08 55.8451 3.08H53.4691V14.144H55.8451ZM76.8163 8.408C77.7603 8.584 78.5363 9.056 79.1443 9.824C79.7523 10.592 80.0563 11.472 80.0563 12.464C80.0563 13.36 79.8323 14.152 79.3843 14.84C78.9523 15.512 78.3203 16.04 77.4883 16.424C76.6563 16.808 75.6723 17 74.5363 17H67.3123V0.248H74.2243C75.3603 0.248 76.3363 0.432 77.1523 0.8C77.9843 1.168 78.6083 1.68 79.0243 2.336C79.4563 2.992 79.6723 3.736 79.6723 4.568C79.6723 5.544 79.4083 6.36 78.8802 7.016C78.3683 7.672 77.6803 8.136 76.8163 8.408ZM70.6723 7.16H73.7443C74.5443 7.16 75.1603 6.984 75.5923 6.632C76.0243 6.264 76.2403 5.744 76.2403 5.072C76.2403 4.4 76.0243 3.88 75.5923 3.512C75.1603 3.144 74.5443 2.96 73.7443 2.96H70.6723V7.16ZM74.0563 14.264C74.8723 14.264 75.5043 14.072 75.9523 13.688C76.4163 13.304 76.6483 12.76 76.6483 12.056C76.6483 11.336 76.4083 10.776 75.9283 10.376C75.4483 9.96 74.8003 9.752 73.9843 9.752H70.6723V14.264H74.0563ZM90.5101 17.168C88.9421 17.168 87.5021 16.8 86.1901 16.064C84.8781 15.328 83.8381 14.312 83.0701 13.016C82.3021 11.704 81.9181 10.224 81.9181 8.576C81.9181 6.944 82.3021 5.48 83.0701 4.184C83.8381 2.872 84.8781 1.848 86.1901 1.112C87.5021 0.375999 88.9421 0.0079999 90.5101 0.0079999C92.0941 0.0079999 93.5341 0.375999 94.8301 1.112C96.1421 1.848 97.1741 2.872 97.9261 4.184C98.6941 5.48 99.0781 6.944 99.0781 8.576C99.0781 10.224 98.6941 11.704 97.9261 13.016C97.1741 14.312 96.1421 15.328 94.8301 16.064C93.5181 16.8 92.0781 17.168 90.5101 17.168ZM90.5101 14.168C91.5181 14.168 92.4061 13.944 93.1741 13.496C93.9421 13.032 94.5421 12.376 94.9741 11.528C95.4061 10.68 95.6221 9.696 95.6221 8.576C95.6221 7.456 95.4061 6.48 94.9741 5.648C94.5421 4.8 93.9421 4.152 93.1741 3.704C92.4061 3.256 91.5181 3.032 90.5101 3.032C89.5021 3.032 88.6061 3.256 87.8221 3.704C87.0541 4.152 86.4541 4.8 86.0221 5.648C85.5901 6.48 85.3741 7.456 85.3741 8.576C85.3741 9.696 85.5901 10.68 86.0221 11.528C86.4541 12.376 87.0541 13.032 87.8221 13.496C88.6061 13.944 89.5021 14.168 90.5101 14.168ZM111.61 17L107.986 11.36L104.698 17H100.906L106.186 8.552L100.834 0.248H104.698L108.322 5.864L111.586 0.248H115.378L110.122 8.672L115.474 17H111.61Z" fill="#F2F2F2"/>
</svg>
